<svg width="192" height="158" viewBox="0 0 192 158" fill="none" xmlns="http://www.w3.org/2000/svg">
<path d="M74.1094 149.351C73.5611 149.443 73.0432 149.504 72.5253 149.58C72.2816 149.61 71.9922 149.595 71.779 149.702C71.0174 150.098 70.1949 150.19 69.4029 149.946C68.7632 149.748 68.291 149.992 67.8645 150.342C67.1487 150.922 66.2957 151.044 65.458 151.257C65.1838 151.318 64.864 151.395 64.6507 151.578C64.3309 151.852 63.9958 151.928 63.5998 151.944C61.9395 152.035 60.2793 152.142 58.6191 152.233C58.284 152.249 57.9337 152.233 57.5986 152.233C56.9132 152.233 56.2583 152.355 55.6947 152.767C55.3444 153.026 54.5676 152.981 54.2629 152.737C53.7755 152.34 53.4709 152.386 52.9987 152.782C52.7855 152.965 52.4809 153.057 52.2067 153.118C51.7955 153.194 51.369 153.224 50.9577 153.209C50.5922 153.209 50.1962 153.133 49.8611 153.011C49.3584 152.828 48.871 152.859 48.3379 152.904C47.3022 152.965 46.2665 152.859 45.2765 153.316C45.1851 153.362 45.048 153.316 44.9261 153.316C43.9361 153.346 42.9156 153.255 41.9408 153.438C39.3667 153.911 36.7621 153.758 34.1728 153.819C33.5788 153.819 33 154.063 32.406 154.078C31.7967 154.078 31.1722 153.956 30.563 153.895C30.2431 153.865 29.9233 153.834 29.5882 153.804C28.8723 153.743 28.1564 153.667 27.4406 153.606C27.0141 153.575 26.6028 153.499 26.1764 153.514C25.0035 153.56 23.8916 153.255 22.7798 152.981C22.3076 152.859 21.7897 152.889 21.3023 152.92C20.3884 152.965 19.5203 152.92 18.8196 152.188C18.3627 151.715 18.0733 151.776 17.4945 152.066C17.2203 152.203 16.7938 152.218 16.5197 152.096C15.9104 151.837 15.3316 151.486 14.7985 151.105C14.2959 150.739 13.778 150.556 13.1535 150.51C12.2244 150.434 11.4933 149.839 10.7927 149.275C10.351 148.924 10.0616 148.406 9.61988 148.04C7.71596 146.469 7.10671 144.106 5.91866 142.093C5.24848 140.964 4.95909 139.714 4.51738 138.509C4.30414 137.945 4.31937 137.289 4.25845 136.679C4.18229 135.841 4.12137 135.017 4.06044 134.179C3.96905 133.142 4.21275 132.166 4.50215 131.19C4.57831 130.931 4.66969 130.671 4.65446 130.412C4.59354 129.512 4.97432 128.78 5.44649 128.049C5.59881 127.805 5.72066 127.515 5.75112 127.24C5.84251 126.493 6.61931 125.99 7.36564 125.914C7.83781 125.868 8.29475 125.837 8.76693 125.822C9.25433 125.792 9.51326 125.441 9.80266 125.105C10.3053 124.526 10.8384 123.977 11.3715 123.428C11.8284 122.971 11.7218 122.422 11.5238 121.949C11.4019 121.629 11.0669 121.293 10.747 121.171C8.73646 120.394 6.95439 119.189 5.1571 118.045C4.624 117.694 4.30414 117.008 3.87766 116.49C3.3141 115.819 2.68962 115.178 2.14129 114.477C1.91282 114.187 1.73004 113.821 1.60819 113.455C1.24264 112.418 0.7857 111.381 0.587693 110.314C0.420148 109.369 0.00890239 108.469 0.10029 107.478C0.161216 106.883 0.0393648 106.288 0.0241334 105.678C0.00890209 104.931 -0.0215606 104.169 0.0241334 103.437C0.0698275 102.659 0.130753 101.881 0.32876 101.134C0.66385 99.899 1.25787 98.8163 2.3393 97.9929C3.05517 97.4439 3.58827 96.6357 4.22798 95.9648C5.08094 95.0803 6.1319 94.4704 7.16763 93.8604C7.89874 93.4335 8.03582 93.22 7.65504 92.4728C7.31995 91.8018 7.16763 91.1004 7.1524 90.3532C7.13717 89.2248 7.24379 88.1268 7.54842 87.0442C7.71596 86.4495 7.65504 85.809 7.77689 85.199C8.12721 83.4607 8.99539 81.951 9.9702 80.5176C10.4119 79.8619 11.0669 79.374 11.6304 78.7945C12.2549 78.154 12.8794 77.5136 13.5191 76.8884C14.3873 76.0497 15.0879 74.9823 16.3064 74.5705C17.0375 74.3266 17.5402 73.7928 17.9514 73.1981C18.6368 72.207 19.505 71.475 20.556 70.8803C20.9368 70.6668 21.2719 70.2856 21.5308 69.9196C21.9116 69.4012 22.3533 69.0199 22.9473 68.8064C23.5718 68.5777 24.181 68.1507 24.8208 68.0745C25.8717 67.9678 26.4505 67.1901 27.2425 66.7021C27.5929 66.4886 27.5776 66.1836 27.3339 65.8939C26.7704 65.1925 26.1763 64.5367 25.628 63.82C24.7598 62.7069 24.1963 61.4107 23.6023 60.1451C22.9168 58.6964 22.201 57.2478 21.6222 55.7534C21.1652 54.5792 20.9063 53.3288 20.5712 52.1241C20.3275 51.2397 20.0838 50.3705 19.8858 49.4861C19.7335 48.7999 19.6421 48.0832 19.5812 47.3817C19.5203 46.5888 19.505 45.7958 19.4746 44.9876C19.4441 44.0879 19.3679 43.1882 19.3832 42.3038C19.4289 40.0622 19.6573 37.8511 20.2818 35.6858C20.7083 34.2219 21.0738 32.7427 21.4699 31.2636C21.9725 29.3422 22.8407 27.6038 23.9983 26.018C24.5009 25.3318 24.8969 24.5388 25.4605 23.9136C25.8565 23.4714 26.222 23.0444 26.4505 22.4802C26.7399 21.7635 27.3339 21.3365 27.867 20.8486C28.7809 19.9946 29.6339 19.0644 30.5477 18.1953C31.5378 17.2346 32.6192 16.4111 33.8529 15.7554C34.6602 15.3132 35.3608 14.688 36.1376 14.2C37.1429 13.5901 38.1939 13.0259 39.2448 12.4769C40.509 11.8365 41.7885 11.196 43.0831 10.6318C44.2407 10.1286 45.4288 9.65586 46.6473 9.28989C48.2313 8.80192 49.8611 8.4512 51.4604 7.97848C52.2524 7.74975 53.0444 7.53626 53.8822 7.47527C54.6437 7.42952 55.3901 7.13979 56.1516 6.9873C56.6695 6.8958 57.1874 6.83481 57.7052 6.80431C58.6343 6.75857 59.5635 6.74332 60.4926 6.69757C61.1627 6.65182 61.8329 6.48408 62.4879 6.52983C63.4474 6.59083 64.3918 6.81956 65.3514 6.8958C65.9758 6.94155 66.6156 6.83481 67.2401 6.80431C67.4076 6.80431 67.5904 6.80431 67.7579 6.80431C68.2605 6.77381 68.7632 6.69757 69.2506 6.71282C70.1188 6.75857 70.987 6.91106 71.8704 6.97205C72.8604 7.0483 73.7743 7.36852 74.6272 7.85649C74.7339 7.91748 74.9014 7.88699 75.0233 7.84124C75.7696 7.59726 76.4702 7.74975 77.2013 7.96323C77.6126 8.08522 78.0695 8.11572 78.4808 8.22246C79.2119 8.4207 79.943 8.58844 80.6436 8.86292C81.8926 9.36613 83.1263 9.89984 84.3144 10.5251C85.7157 11.257 87.0408 12.1567 88.0004 13.4528C88.3964 14.0018 88.6858 14.6118 88.5944 15.3437C88.5182 15.8774 88.5335 16.4111 88.4878 16.9448C88.4421 17.5243 88.6401 17.8598 89.1732 17.9513C89.5997 18.0275 90.0414 18.0885 90.4831 18.1495C91.2294 18.2715 91.7473 18.7595 92.1585 19.3237C92.9353 20.4064 93.2399 21.7178 93.773 22.9224C94.3518 24.2338 94.8545 25.591 95.6465 26.8262C96.2101 27.6953 96.4842 28.7628 96.7889 29.7692C97.0173 30.5316 97.0326 31.3551 97.2153 32.1328C97.4743 33.2612 97.8093 34.3591 98.0835 35.4875C98.2206 36.067 98.312 36.6617 98.3729 37.2564C98.4643 38.0646 98.5252 38.888 98.5709 39.7115C98.5709 39.8945 98.4795 40.0775 98.4795 40.2605C98.4795 40.9162 98.4795 41.5566 98.4795 42.2123C98.4795 43.5085 98.3881 44.7894 98.1292 46.0703C97.916 47.153 97.6266 48.2051 97.2763 49.2573C97.1239 49.6995 96.865 50.1113 96.6975 50.5535C96.4081 51.3464 96.1644 52.1546 95.8902 52.9476C95.7988 53.222 95.616 53.466 95.5094 53.7253C95.2657 54.3505 95.0677 54.9909 94.7935 55.6161C94.6412 55.9821 94.4432 56.3633 94.1691 56.6378C93.2247 57.5832 92.5545 58.7269 92.0976 59.9468C91.4274 61.7004 90.5592 63.3016 89.3103 64.7045C88.9599 65.101 88.8533 65.6804 88.5335 66.1074C87.909 66.9156 87.254 67.7238 86.5077 68.4405C86.1574 68.7759 85.5786 68.8979 85.0912 69.0657C84.6952 69.2029 84.4058 69.3707 84.2687 69.8129C83.9793 70.8193 83.2025 71.3988 82.3648 71.9325C82.0145 72.146 81.7251 72.4509 81.39 72.6949C80.8264 73.1219 80.2628 73.5641 79.6688 73.9301C78.9834 74.3418 78.2371 74.6468 77.5669 75.0585C76.9424 75.4397 76.3636 75.9277 75.7696 76.3394C75.4497 76.5529 75.0994 76.7206 74.7796 76.9341C73.9875 77.4678 74.0637 78.459 74.9014 78.9012C75.008 78.9622 75.1299 79.0232 75.206 79.1147C75.9371 79.9839 76.9576 80.4871 77.8411 81.1428C77.8868 81.1733 77.9629 81.1733 78.0086 81.2191C79.1662 82.2407 80.3238 83.2777 81.4814 84.3146C81.9078 84.6958 82.3343 85.0618 82.7303 85.4735C84.0555 86.8612 85.274 88.3098 85.9746 90.1244C86.1117 90.4904 86.1574 90.9174 86.2335 91.3139C86.3706 92.1221 86.5077 92.9302 86.6295 93.7232C86.6752 94.0434 86.7514 94.3636 86.7209 94.6686C86.6296 95.7208 86.9037 96.7272 87.1474 97.7184C87.3302 98.4656 87.2693 99.1823 87.254 99.9447C87.2388 101.226 86.5839 102.308 86.3858 103.528C86.2945 104.077 85.7614 104.565 85.3501 105.023C84.9389 105.48 84.5276 105.907 84.5276 106.563C84.5276 106.807 84.5276 107.051 84.5581 107.279C84.6952 108.179 84.5885 109.155 85.1521 109.948C85.2892 110.146 85.5938 110.268 85.8375 110.345C86.0812 110.406 86.3706 110.375 86.6295 110.345C86.9951 110.314 87.315 110.39 87.6043 110.634C88.1679 111.107 88.8685 110.893 89.5083 110.939C90.148 110.985 90.7877 110.985 91.4122 111.046C91.8996 111.092 92.387 111.198 92.8744 111.229C94.1234 111.32 95.3571 111.351 96.6061 111.442C97.1239 111.473 97.459 111.702 97.4286 112.312C97.4133 112.739 97.5809 112.769 97.9617 112.662C99.302 112.281 100.642 112.144 102.013 112.693C102.607 112.937 103.308 112.937 103.948 113.044C104.054 113.059 104.161 113.089 104.252 113.15C105.288 113.669 106.476 113.669 107.557 114.05C108.334 114.324 109.111 114.614 109.903 114.858C110.497 115.056 111.122 115.163 111.518 115.758C111.624 115.926 111.959 115.956 112.188 116.032C112.477 116.109 112.782 116.124 113.041 116.246C114 116.688 114.945 117.161 115.904 117.603C116.635 117.954 117.153 118.533 117.701 119.097C118.143 119.555 118.6 119.997 119.103 120.394C119.499 120.714 119.423 121.171 119.529 121.568C119.742 122.391 119.895 123.23 120.078 124.069C120.23 124.8 120.352 125.517 120.047 126.249C119.956 126.478 119.94 126.752 119.94 126.996C119.956 128.049 120.078 129.085 120.001 130.122C119.91 131.297 119.621 132.44 119.027 133.477C118.874 133.736 118.661 133.95 118.478 134.194C118.128 134.636 117.793 135.109 117.412 135.536C117.199 135.78 116.925 135.963 116.696 136.176C116.224 136.603 115.782 137.076 115.295 137.457C114.899 137.777 114.457 138.052 114 138.25C113.589 138.433 113.239 138.631 113.056 139.028C112.873 139.424 112.538 139.5 112.173 139.516C111.792 139.531 111.396 139.439 111.076 139.775C111.015 139.836 110.786 139.775 110.649 139.714C110.238 139.531 109.918 139.653 109.644 139.958C109.218 140.431 108.745 140.644 108.106 140.339C107.786 140.202 107.436 140.309 107.207 140.598C106.735 141.193 106.08 141.346 105.349 141.407C104.663 141.468 103.978 141.62 103.308 141.727C103.14 141.757 102.958 141.773 102.79 141.788C101.754 141.895 100.719 141.986 99.698 142.078C99.1649 142.123 98.6166 142.123 98.0835 142.184C97.2306 142.261 96.3776 142.367 95.5247 142.459C95.0525 142.505 94.5498 142.489 94.0929 142.581C93.3009 142.748 92.5088 143.008 91.7168 143.175C91.3208 143.267 90.9096 143.221 90.5135 143.267C90.3155 143.282 90.0871 143.297 89.9195 143.374C89.4321 143.587 88.9447 143.633 88.3964 143.587C87.3302 143.511 86.2945 143.846 85.3196 144.273C84.8932 144.456 84.6495 144.395 84.3448 144.09C83.1111 142.825 82.7456 141.33 83.0806 139.638C83.1111 139.455 83.0654 139.272 83.0806 139.089C83.2025 138.189 83.3396 137.274 83.4614 136.374C83.4767 136.207 83.4614 136.039 83.4767 135.886C83.5224 135.505 83.568 135.155 84.0402 134.987C84.3753 134.865 84.7561 134.636 84.6038 134.102C84.6038 134.057 84.8018 133.858 84.9389 133.843C85.5329 133.782 86.0964 133.843 86.6448 134.148C86.8276 134.255 87.056 134.316 87.2693 134.316C87.7567 134.316 88.2288 134.24 88.7162 134.24C89.2798 134.24 89.8434 134.285 90.346 133.98C90.3917 133.95 90.4374 133.95 90.4831 133.935C91.5797 133.874 92.6764 133.721 93.773 133.767C94.3671 133.782 94.8392 133.614 95.3571 133.462C95.7379 133.34 96.1796 133.355 96.5756 133.401C97.0021 133.447 97.3981 133.645 97.8246 133.736C98.2511 133.828 98.6471 133.691 98.9669 133.401C99.3629 133.035 99.759 132.943 100.338 133.004C100.749 133.05 101.267 132.76 101.632 132.486C101.937 132.242 102.242 132.211 102.531 132.272C103.354 132.455 104.161 132.272 104.953 132.166C105.044 132.166 105.151 132.15 105.242 132.166C106.156 132.242 106.963 131.967 107.801 131.632C108.578 131.312 109.431 131.19 110.208 130.87C110.741 130.641 111.198 130.229 111.7 129.909C111.914 129.772 112.112 129.634 112.325 129.482C112.706 129.207 113.102 128.933 113.467 128.643C113.848 128.338 114.198 128.003 114.549 127.667C114.823 127.393 114.884 127.118 114.701 126.707C114.274 125.776 113.528 125.426 112.599 125.212C112.249 125.136 111.898 124.877 111.609 124.633C110.893 124.038 110.055 123.764 109.187 123.55C108.487 123.367 107.771 123.245 107.07 123.032C106.735 122.94 106.4 122.788 106.126 122.574C105.318 121.964 104.435 121.613 103.43 121.659C102.729 121.69 102.166 121.324 101.617 121.019C100.825 120.577 100.033 120.592 99.1954 120.805C99.0735 120.836 98.9365 120.882 98.8146 120.851C98.0226 120.653 97.2306 120.439 96.4385 120.241C96.2862 120.211 96.0882 120.195 95.9816 120.272C95.4942 120.607 95.2657 120.592 94.8088 120.195C94.5955 120.012 94.3214 119.845 94.0472 119.784C93.7274 119.707 93.5141 119.906 93.5598 120.256C93.6207 120.683 93.4227 120.821 93.0267 120.76C92.1281 120.622 91.2142 120.485 90.3155 120.363C90.2089 120.348 90.0871 120.363 89.9652 120.363C89.0056 120.363 88.0308 120.333 87.0713 120.363C86.3858 120.378 85.7004 120.47 85.015 120.561C84.8779 120.577 84.7256 120.668 84.6038 120.76C83.8879 121.232 83.1263 121.415 82.2582 121.278C81.9231 121.217 81.5118 121.308 81.2072 121.476C80.3695 121.934 79.4556 122.071 78.5569 122.254C77.7801 122.422 77.0338 122.65 76.257 122.803C75.4802 122.971 74.6882 123.184 73.9114 123.215C72.3121 123.26 70.7737 123.489 69.2354 123.931C68.946 124.023 68.7327 124.206 68.8546 124.526C68.946 124.8 69.1592 124.922 69.4638 124.755C69.5248 124.724 69.6161 124.739 69.6923 124.724C69.7989 124.709 69.9208 124.694 70.0274 124.679C69.9665 124.8 69.9055 124.907 69.8446 125.029C69.8141 125.09 69.738 125.182 69.738 125.182C69.9055 125.334 70.0578 125.563 70.2559 125.609C70.8042 125.746 71.4134 126.02 71.9008 125.883C73.1955 125.548 73.6524 126.478 74.0485 127.271C74.4597 128.094 75.0994 128.521 75.8458 128.902C76.7749 129.39 77.6431 130.016 78.2066 130.915C78.4199 131.251 78.3742 131.739 78.4503 132.166C78.5112 132.501 78.5569 132.852 78.694 133.157C79.2119 134.209 79.6993 135.261 79.6384 136.496C79.5927 137.32 79.5622 138.159 79.5317 138.982C79.5165 139.561 79.5927 140.156 79.5165 140.736C79.3947 141.696 79.2119 142.642 78.9682 143.587C78.7854 144.319 78.496 145.036 78.2218 145.753C78.1305 145.981 77.9629 146.21 77.7801 146.362C77.0186 146.972 76.2113 147.537 75.465 148.162C75.008 148.543 74.5968 148.985 74.1398 149.412M28.7961 33.9169C28.4458 34.6488 28.0803 35.3656 27.7604 36.1127C27.2882 37.1954 26.7856 38.2628 26.4353 39.376C26.1459 40.2757 26.0697 41.2364 25.8565 42.1666C25.5823 43.3407 25.2015 44.4844 25.034 45.7043C24.8208 47.2292 24.5314 48.7389 24.5923 50.279C24.638 51.2702 24.8969 52.2614 25.0949 53.2373C25.4452 54.9757 26.4657 56.3481 27.6538 57.5832C28.4611 58.4219 29.3597 59.1539 30.2583 59.9011C31.0504 60.572 31.8424 61.304 32.7258 61.8529C34.1728 62.7526 35.6807 63.5608 37.1734 64.369C37.8588 64.735 38.5594 65.1162 39.2905 65.3602C40.8289 65.8482 42.3977 66.2446 43.9513 66.6716C44.2864 66.7631 44.6215 66.8851 44.9718 66.9613C46.297 67.2968 47.6373 67.6323 48.9777 67.9525C50.2876 68.2575 51.5975 68.5777 52.9226 68.8369C53.3948 68.9284 53.8822 68.8979 54.3543 68.9589C55.4053 69.1114 56.4563 69.3402 57.5225 69.4317C58.6343 69.5231 59.7005 69.2487 60.7972 68.9742C62.1985 68.6387 63.6455 68.5015 65.062 68.2575C65.8845 68.1202 66.7222 67.983 67.5294 67.7543C68.0625 67.6018 68.5499 67.2816 69.083 67.0833C70.2102 66.6411 71.3373 66.2294 72.4644 65.7872C72.6167 65.7262 72.7995 65.5279 72.8147 65.3754C72.8147 65.2687 72.6167 65.0705 72.4796 65.0095C71.9008 64.7655 71.3373 64.491 70.728 64.3385C70.3472 64.247 69.9208 64.3385 69.5248 64.3233C68.8698 64.2928 68.2149 64.4453 67.5904 64.0793C67.3467 63.942 67.2857 63.7743 67.4228 63.5608C67.6208 63.2558 67.4685 63.0119 67.2248 62.9509C66.8745 62.8746 66.4176 62.8441 66.2348 63.2711C66.0063 63.8048 65.5951 63.7438 65.1838 63.7133C64.3156 63.6676 63.5388 63.3168 62.7468 63.0119C62.1985 62.7984 61.5435 62.6306 61.1475 62.2342C59.929 61.0142 58.5277 60.0688 57.0198 59.2454C56.243 58.8184 55.451 58.3762 54.7351 57.8425C54.3696 57.568 54.0802 57.1715 53.5775 57.1715C52.9683 57.1715 52.4961 56.9275 52.1153 56.5006C51.4756 55.7686 50.6988 55.2349 49.8611 54.7622C49.1604 54.3657 48.4141 53.9845 47.9724 53.2373C47.6678 52.7188 47.4088 52.1699 47.0738 51.6819C46.7844 51.2549 46.3274 50.9347 46.1142 50.4925C45.5354 49.3031 45.048 48.0527 44.5149 46.848C44.256 46.2533 43.9209 45.7043 43.7381 45.0944C43.3878 43.9049 43.0984 42.7003 42.8394 41.4956C42.6567 40.6722 42.55 39.8182 42.4434 38.9795C42.3216 38.0189 42.1845 37.0429 42.1693 36.0822C42.1693 35.5943 42.1388 34.9386 42.809 34.7403C43.3116 34.5879 43.7381 34.3744 44.0884 33.9626C44.2407 33.7949 44.4844 33.7034 44.652 33.5509C45.3069 32.9867 46.038 32.4987 46.5559 31.843C47.485 30.6689 48.5207 29.6015 49.7697 28.8085C50.4094 28.3968 51.2014 28.1833 51.963 28.0308C52.5113 27.9088 53.0292 27.7868 53.4252 27.3751C53.806 26.9939 54.2173 26.7194 54.7503 26.6127C55.3139 26.4907 55.9232 26.3839 56.441 26.14C57.6291 25.5757 58.7714 24.9048 59.9595 24.3406C60.8277 23.9289 61.7263 23.5934 62.625 23.2427C63.0971 23.0597 63.5541 22.8462 64.0415 22.7394C64.4832 22.6479 64.9553 22.7394 65.3971 22.6479C66.4176 22.4497 67.4076 22.16 68.4281 21.977C69.5248 21.7788 70.5757 21.4585 71.5505 20.8943C71.9161 20.6808 72.3578 20.5436 72.769 20.4978C73.9875 20.3606 75.069 19.8116 76.2113 19.4762C76.8206 19.3084 77.4146 19.0949 78.0086 18.8967C78.4199 18.7595 78.8463 18.607 79.2423 18.424C79.3642 18.3782 79.4251 18.2105 79.5165 18.1038C79.3794 18.0428 79.2271 17.9055 79.09 17.9055C78.3285 17.9665 77.6431 17.6158 76.912 17.5396C76.3332 17.4786 75.7848 17.1583 75.1451 17.4633C74.81 17.6158 74.3074 17.4023 73.8809 17.3566C73.7895 17.3566 73.6981 17.3261 73.6067 17.3108C73.2564 17.2651 72.8756 17.3108 72.5406 17.1888C71.5962 16.8839 70.6671 16.6094 69.6618 16.5941C68.885 16.5941 68.1082 16.5331 67.3314 16.5026C67.2553 16.5026 67.1639 16.4721 67.1182 16.4264C66.6613 15.9994 66.1434 15.9079 65.5341 15.9994C65.0467 16.0757 64.5441 16.0604 64.0567 16.1672C63.0362 16.3959 62.0766 16.8076 61.0409 17.0516C59.335 17.4481 57.6443 17.6615 55.9079 17.692C55.0854 17.692 54.2629 17.9513 53.4557 17.6006C53.3948 17.5701 53.3034 17.6005 53.2424 17.6615C52.9074 17.8903 52.5875 18.1648 52.2372 18.3477C51.8107 18.5612 51.3385 18.7137 50.8816 18.8815C50.4703 19.034 50.0286 19.1407 49.6174 19.3084C48.8406 19.6287 48.1704 20.1776 47.287 20.2844C46.4188 20.3911 45.6115 20.6808 44.8804 21.1688C44.4083 21.4738 43.9056 21.7788 43.4182 22.0685C42.0322 22.8614 40.6309 23.6391 39.2448 24.4473C38.6356 24.8133 38.072 25.2708 37.4475 25.6215C36.9906 25.8655 36.5337 26.0332 36.229 26.5059C36.0767 26.7499 35.8026 26.9481 35.5436 27.1159C35.041 27.4514 34.4927 27.7258 34.0053 28.0766C33.5331 28.412 33.2589 29.0525 32.5583 29.022C32.5278 29.022 32.4821 29.083 32.4517 29.1287C31.6292 30.0437 30.761 30.9281 30.0146 31.8888C29.5425 32.4988 29.2226 33.2459 28.7961 33.9779M60.3555 88.0353C60.0813 87.3186 59.7919 86.6172 59.5178 85.9005C59.3654 85.4888 59.2131 85.0618 59.1217 84.6196C58.9999 84.0249 58.9237 83.4149 58.8171 82.805C58.6953 82.1645 58.5886 81.5088 58.4059 80.8836C58.3449 80.6854 58.086 80.5024 57.8728 80.3804C57.6443 80.2431 57.3397 80.2279 57.1112 80.0907C56.243 79.5874 55.253 79.6484 54.3543 79.7247C53.5014 79.8009 52.7398 79.8009 51.9478 79.5112C51.1862 79.2367 50.4094 78.9012 49.6174 78.8097C48.9015 78.7335 48.3227 78.52 47.7896 78.0321C47.5002 77.7728 47.1651 77.5441 46.8148 77.3916C45.9314 76.9799 45.0328 76.5987 44.1189 76.2327C43.4792 75.9734 43.007 75.516 42.5348 75.0433C42.4434 74.9518 42.215 74.8603 42.1083 74.9213C42.0169 74.967 41.9408 75.1957 41.956 75.333C41.956 75.5007 42.0931 75.6685 42.1388 75.8515C42.1845 76.0192 42.1997 76.1869 42.2302 76.3547C42.0169 76.3547 41.7732 76.4614 41.6057 76.3852C40.7375 76.0192 39.8541 75.6532 39.0316 75.1957C37.9806 74.6163 36.9906 73.9148 35.9396 73.3201C35.4675 73.0456 35.0562 72.7407 34.7364 72.2985C34.0814 71.414 33.1523 71.0023 32.0556 71.0328C31.8881 71.0328 31.7206 71.2005 31.5378 71.292C31.7053 71.3988 31.8881 71.5055 32.0556 71.6122C32.0861 71.6275 32.147 71.6122 32.208 71.6122C32.8172 71.719 33.4417 71.8105 33.7006 72.5272C33.792 72.7712 33.7463 72.9084 33.5483 72.9999C32.6801 73.3659 31.7967 73.7318 30.9133 74.0673C30.0603 74.3875 29.2074 74.7993 28.2478 74.6925C28.0803 74.6773 27.8975 74.7078 27.7452 74.7688C26.8008 75.1043 25.9479 75.577 25.2015 76.2937C24.5923 76.8731 23.8612 77.3458 23.1758 77.8491C22.3837 78.4285 21.5613 78.9775 20.7692 79.5722C20.2666 79.9382 19.7944 80.3346 19.3222 80.7311C18.515 81.4021 17.6773 82.0578 16.8852 82.7592C15.7429 83.7809 14.631 84.8331 13.5343 85.9157C12.5443 86.8764 12.5443 87.3034 13.5039 88.2183C14.3568 89.0265 15.2402 89.8195 16.1541 90.5667C16.6415 90.9631 17.1746 91.3291 17.86 91.3596C19.0176 91.4054 19.4593 91.7408 19.8553 92.8998C20.0077 93.3572 20.2514 93.6774 20.7845 93.8452C22.3837 94.3636 23.7241 95.3853 25.1559 96.224C26.7856 97.1847 28.3849 98.2216 30.0603 99.0908C32.5126 100.372 35.041 101.5 37.6912 102.339C38.5899 102.629 39.4581 103.025 40.3567 103.3C40.7832 103.437 41.2858 103.361 41.7123 103.498C42.5653 103.803 43.4487 103.864 44.3321 103.879C44.8957 103.879 45.5049 103.818 46.0228 104.001C47.0738 104.367 48.1704 104.367 49.2518 104.458C50.5008 104.565 51.765 104.565 53.0292 104.565C53.5775 104.565 54.1563 104.535 54.6894 104.382C55.4662 104.153 56.2126 103.818 56.9589 103.528C58.6191 102.857 60.0204 101.851 61.0257 100.341C61.4369 99.716 62.0157 99.1518 62.0462 98.3436C62.0766 97.7642 62.0462 97.1999 62.0005 96.6205C61.97 96.0868 61.8786 95.5531 61.8177 95.0194C61.772 94.6229 61.6349 94.1959 61.7415 93.8299C61.9852 92.8845 61.9395 91.9543 61.8025 91.0241C61.7415 90.5514 61.6654 90.0177 61.376 89.667C60.98 89.1638 60.6296 88.6758 60.3707 88.0201M72.7995 140.339C73.226 140.141 73.6677 139.943 74.0942 139.744C74.5359 139.531 74.5359 139.165 74.3379 138.799C74.0028 138.189 73.7591 137.518 73.1955 137.03C72.7995 136.695 72.5101 136.237 72.1293 135.886C71.6571 135.459 71.2002 134.926 70.6366 134.728C69.6466 134.362 68.8393 133.843 68.1387 133.081C67.8645 132.791 67.5142 132.516 67.1487 132.394C65.9149 131.952 64.6964 131.556 63.7216 130.565C63.2647 130.092 62.5488 129.726 61.9091 129.634C60.721 129.451 59.5635 129.162 58.4363 128.78C58.1774 128.689 57.888 128.597 57.7052 128.43C57.3701 128.125 57.0807 127.972 56.6695 128.293C56.5172 128.414 56.2887 128.414 56.1212 128.506C55.8013 128.689 55.451 128.857 55.1921 129.116C54.7656 129.543 54.3848 130.031 53.9888 130.504C53.6689 130.9 53.3643 131.297 53.0749 131.708C52.3895 132.73 51.6736 133.691 50.4094 134.072C49.3128 134.407 48.2618 134.88 47.1651 135.2C46.434 135.414 45.6725 135.566 44.9109 135.612C44.2864 135.658 43.6467 135.505 43.007 135.429C42.8394 135.414 42.6567 135.307 42.5043 135.337C41.8189 135.52 41.2858 135.368 40.8898 134.743C40.7832 134.575 40.5852 134.453 40.4177 134.331C39.8236 133.935 39.1687 133.599 38.6356 133.142C37.6455 132.272 36.9449 131.144 36.29 130C36.0615 129.604 35.7721 129.421 35.3304 129.467C34.1728 129.558 33.0761 129.97 32.1318 130.595C31.4769 131.037 30.8371 131.068 30.1365 131.053C29.7862 131.053 29.5425 130.885 29.4054 130.565C29.116 129.924 28.5829 129.848 28.1564 130.427C27.9127 130.763 27.7756 131.175 27.5472 131.51C27.4253 131.693 27.1969 131.937 27.0445 131.922C26.0697 131.83 25.1711 131.464 24.2877 131.053C23.4195 130.641 22.5513 130.214 21.6831 129.787C21.5308 129.711 21.3785 129.604 21.2719 129.467C20.8149 128.963 20.3884 128.445 19.9315 127.957C19.8401 127.85 19.6573 127.774 19.5203 127.789C18.3779 127.835 17.3422 128.232 16.3978 128.872C15.9561 129.177 15.5449 129.528 15.1184 129.863C14.0827 130.687 13.0317 131.48 12.0417 132.349C10.8993 133.34 10.0464 134.59 9.22386 135.841C8.87354 136.374 8.88878 137.32 9.36095 137.838C9.81789 138.342 10.1987 138.936 10.6708 139.424C11.2496 140.019 11.7523 140.736 12.5748 141.041C13.2449 141.3 13.9151 141.544 14.6005 141.773C15.3773 142.047 16.1694 142.245 16.8091 142.794C16.9309 142.901 17.1137 142.931 17.2812 142.977C17.6773 143.084 18.0885 143.191 18.4845 143.297C18.7587 143.358 19.0328 143.45 19.307 143.465C19.6726 143.48 19.9772 143.572 20.2361 143.846C20.4494 144.075 20.6778 144.197 21.0586 144.09C21.5765 143.938 22.1553 143.923 22.7036 143.877C23.1301 143.846 23.4042 144.151 23.5413 144.472C23.785 145.036 23.7393 145.051 24.2724 144.777C24.4095 144.7 24.5466 144.639 24.6837 144.563C24.9578 144.38 25.2015 144.38 25.4605 144.624C25.5823 144.731 25.7499 144.822 25.9022 144.853C26.4048 144.914 26.8922 144.914 27.3949 144.96C27.8366 145.005 28.3087 145.005 28.6895 145.173C29.1617 145.402 29.5425 145.829 30.1517 145.646C30.1974 145.646 30.2583 145.692 30.3193 145.722C30.959 146.058 31.5835 146.423 32.2384 146.728C32.3755 146.789 32.6344 146.728 32.7868 146.652C32.8477 146.606 32.8172 146.286 32.7258 146.179C32.5583 145.981 32.3298 145.829 32.1166 145.661C32.0404 145.6 31.9643 145.524 31.8881 145.463C31.9795 145.402 32.0861 145.28 32.1775 145.28C32.3755 145.28 32.5735 145.371 32.7868 145.356C33.792 145.341 34.7821 145.295 35.7873 145.265C36.1072 145.265 36.4727 145.082 36.7317 145.188C37.3714 145.463 37.9349 145.509 38.6508 145.31C39.5647 145.051 40.57 145.066 41.5448 144.99C41.6666 144.99 41.8037 145.112 41.9256 145.188C41.8494 145.28 41.7732 145.448 41.6819 145.463C41.2249 145.57 40.7984 145.829 40.2958 145.509C39.9759 145.31 39.5952 145.493 39.4581 145.859C39.3515 146.149 39.3819 146.484 39.3362 146.805C39.3058 147.033 39.3972 147.064 39.6104 147.064C40.6461 147.094 41.3925 146.423 42.154 145.92C42.9004 145.432 43.7229 145.371 44.4844 145.082C44.7281 144.99 45.0023 145.021 45.2612 145.005C46.1142 144.99 46.9824 145.097 47.8049 144.929C48.7035 144.746 49.5412 144.533 50.4856 144.655C51.6889 144.807 52.9074 144.792 54.1259 144.761C54.7199 144.761 55.2987 144.502 55.8927 144.502C57.3244 144.472 58.7257 143.999 60.1727 144.197C60.2184 144.197 60.2641 144.197 60.3098 144.182C61.117 143.877 61.9243 143.953 62.7468 144.075C62.9143 144.106 63.1276 144.09 63.2342 144.014C64.1024 143.389 65.0467 143.282 66.052 143.541C67.2553 143.846 67.5904 143.846 68.3215 142.809C68.3976 142.703 68.489 142.596 68.5956 142.535C69.9665 141.818 71.3373 141.117 72.769 140.354M43.4792 112.632C43.3573 112.571 43.2507 112.464 43.1136 112.434C41.7885 112.113 40.4481 112.037 39.0925 112.022C38.727 112.022 38.3462 111.915 37.9806 111.824C37.8283 111.778 37.7065 111.595 37.5542 111.549C37.0211 111.397 36.4575 111.32 35.9396 111.137C34.4774 110.634 33.0305 110.085 31.5987 109.552C31.2027 109.399 30.8371 109.155 30.4411 109.018C29.9233 108.835 29.4968 108.56 29.1008 108.179C28.7352 107.828 28.2935 107.523 27.8366 107.295C27.2578 107.005 26.6028 106.837 26.024 106.548C25.2777 106.166 24.5618 105.739 23.8764 105.282C22.9321 104.672 21.942 104.108 21.1195 103.361C20.4646 102.781 19.7792 102.674 19.0024 102.705C18.515 102.735 18.0276 102.827 17.5402 102.903C16.9005 102.995 16.276 103.101 15.6363 103.208C15.2402 103.284 14.8442 103.376 14.4634 103.498C13.4125 103.833 12.2701 103.864 11.2953 104.458C10.8232 104.733 10.2901 104.946 9.77219 105.053C9.33048 105.145 8.93447 105.236 8.59938 105.572C8.30998 105.861 8.00536 106.197 7.62457 106.334C6.89347 106.593 6.32991 107.035 5.81204 107.584C5.43126 107.981 5.44649 108.316 5.81204 108.713C5.94913 108.865 6.11667 108.987 6.29945 109.094C6.92393 109.506 7.36564 110.177 8.18813 110.299C8.73646 110.375 9.28479 110.528 9.83312 110.634C10.0768 110.68 10.3358 110.726 10.5795 110.726C10.8841 110.726 11.1735 110.634 11.4781 110.634C11.996 110.634 12.5138 110.741 13.0165 110.726C14.1588 110.665 15.0727 110.146 15.8038 109.262C16.7025 108.164 17.5706 107.036 18.8958 106.41C19.3527 106.197 19.7944 106.182 20.2209 106.548C20.3732 106.685 20.6474 106.761 20.8758 106.761C21.7593 106.761 21.805 106.761 22.1553 107.752C22.4142 108.484 22.5361 109.216 22.5208 110.024C22.4904 111.198 22.7341 112.373 22.8559 113.532C22.8864 113.776 22.9016 114.02 22.8711 114.248C22.7798 115.072 22.6122 115.88 22.5665 116.703C22.5361 117.344 22.338 117.771 21.805 118.137C21.4699 118.365 21.0738 118.64 21.0586 119.158C21.0586 119.585 21.6526 120.272 22.2162 120.485C22.9016 120.744 23.587 121.019 24.2724 121.278C25.1558 121.598 26.0393 121.796 26.9988 121.583C27.5776 121.461 28.1717 121.354 28.7657 121.293C29.6796 121.186 30.5782 121.049 31.3855 120.546C32.1166 120.089 32.8629 119.631 33.5788 119.143C33.8986 118.914 34.2033 118.64 34.4622 118.32C34.7973 117.908 34.6145 117.435 34.584 116.963C34.5079 115.956 34.6297 114.965 34.9648 114.004C35.1933 113.333 35.2999 112.617 35.4827 111.93C35.5132 111.808 35.635 111.641 35.7569 111.625C35.833 111.61 36.031 111.763 36.0615 111.869C36.1833 112.327 36.2138 112.342 36.6707 112.22C37.1277 112.098 37.5999 112.174 37.8893 112.495C38.331 112.983 38.6813 113.562 38.7422 114.263C38.8031 114.934 38.8184 115.651 39.0468 116.261C39.3667 117.146 39.3819 118.045 39.519 118.945C39.6104 119.509 39.717 120.058 39.7779 120.622C39.8693 121.354 40.0216 122.086 39.9759 122.803C39.9303 123.459 40.0216 123.947 40.4329 124.48C41.1031 125.334 42.0169 125.548 42.9765 125.639C43.5096 125.685 44.0732 125.517 44.6063 125.578C45.84 125.7 46.7996 125.09 47.8201 124.557C48.5512 124.175 49.0995 123.52 49.9525 123.352C50.1505 123.321 50.3637 123.077 50.2419 122.727C50.0134 122.056 49.8306 121.354 49.922 120.622C49.922 120.546 49.8763 120.439 49.8459 120.363C49.5565 119.707 49.4955 119.021 49.5412 118.304C49.5717 117.786 49.3432 117.374 48.9472 117.069C48.6426 116.825 48.277 116.658 48.0029 116.383C47.7439 116.139 47.485 115.834 47.3936 115.499C47.2413 115.011 47.2718 114.462 47.1651 113.959C47.089 113.623 46.9824 113.257 46.4797 113.242C46.0685 113.242 45.6725 113.135 45.2765 113.044C44.7281 112.922 44.195 112.784 43.5553 112.647M63.4627 52.5053C63.4627 52.5053 63.5084 52.5663 63.5388 52.5663C64.9706 52.9018 66.3871 53.2678 67.8188 53.5728C68.4129 53.6948 69.0221 53.7405 69.6161 53.771C69.7228 53.771 69.936 53.5575 69.936 53.4508C69.9055 52.7646 69.8294 52.0784 69.7532 51.3922C69.6314 50.1875 69.4791 48.9828 69.3724 47.7934C69.3115 47.153 69.2658 46.4973 69.281 45.8568C69.281 44.7741 69.3267 43.7067 69.3877 42.624C69.4486 41.2974 69.54 39.9707 69.8751 38.6593C70.2102 37.3174 70.4691 35.9603 70.789 34.6184C70.9565 33.8712 71.2002 33.1392 71.3677 32.3768C71.4744 31.9498 71.1697 31.9345 70.8651 31.965C70.5452 31.9955 70.2102 32.1023 69.9208 32.0413C69.4029 31.9345 69.0069 32.1023 68.5804 32.331C67.7427 32.758 66.9202 33.185 66.052 33.5357C64.9706 33.9779 63.8282 34.2219 62.8077 34.8166C62.4879 35.0148 62.1223 35.1521 61.7568 35.2741C61.0866 35.4875 60.3555 35.579 59.7158 35.8535C59.0151 36.1432 58.3602 36.5702 57.7052 36.9667C57.1874 37.2869 56.7609 37.8664 56.2126 38.0036C55.1921 38.2476 54.598 38.949 53.8822 39.5743C53.4709 39.925 52.9835 40.169 52.5266 40.4892C51.9021 40.9314 51.2319 41.3279 50.6683 41.8463C50.2114 42.2581 49.8763 42.7918 49.4955 43.2797C49.2975 43.539 49.0843 43.8135 48.9777 44.1032C48.9015 44.3167 48.8863 44.6826 49.0234 44.8199C49.5869 45.4146 50.1809 46.0245 50.8511 46.5125C51.6279 47.0767 52.5113 47.5189 53.3491 48.0222C53.9431 48.3729 54.5371 48.7541 55.1464 49.0743C55.6033 49.3183 56.1059 49.4861 56.5629 49.7148C57.2635 50.0655 57.9185 50.523 58.6496 50.7822C60.2336 51.3312 61.7263 52.1546 63.4931 52.4901M67.4381 93.2505C66.8593 91.8323 66.2652 90.4294 65.6865 89.0113C65.5037 88.5691 65.3361 88.1268 65.1534 87.6846C65.0924 87.5169 65.0315 87.3339 64.9553 87.1662C64.9249 87.0747 64.864 87.0137 64.803 86.9374C64.7573 87.0289 64.6507 87.1357 64.666 87.2272C64.7269 87.7304 64.8335 88.2183 64.8944 88.7215C64.9249 89.0113 64.9249 89.3163 64.8944 89.6212C64.8792 89.8957 64.7573 90.1702 64.7573 90.4447C64.7573 91.0699 64.7726 91.6646 65.1077 92.2898C65.3209 92.7015 65.199 93.342 65.1381 93.8757C65.062 94.6534 64.8792 95.4311 64.7878 96.2088C64.7269 96.6967 64.7116 97.2152 64.7726 97.7032C64.8487 98.3589 65.0315 98.9993 64.8944 99.6855C64.6355 100.951 64.1786 102.125 63.7825 103.345C63.5998 103.909 63.3408 104.352 62.9143 104.718C62.6554 104.946 62.5336 105.221 62.564 105.572C62.5945 105.953 62.6706 106.38 62.564 106.731C62.3508 107.462 61.8786 108.057 61.1323 108.286C60.3555 108.515 59.731 108.987 59.0456 109.353C58.2993 109.75 57.8728 110.207 57.9946 111.092C58.0555 111.564 57.8575 112.037 57.3701 112.251C56.8218 112.479 56.2583 112.662 55.6795 112.845C54.796 113.135 54.1563 113.913 54.461 114.599C54.8874 115.56 54.7656 117.024 56.4258 116.993C56.898 116.993 57.3701 117.085 57.8271 117.024C58.3906 116.947 58.9237 116.688 59.4873 116.642C60.919 116.536 62.2899 116.231 63.6302 115.727C64.4679 115.407 65.3057 115.087 65.8845 114.34C66.3566 113.715 66.7679 113.044 67.2401 112.418C67.4685 112.113 67.7731 111.854 68.0321 111.564C68.6261 110.863 68.687 109.948 68.9155 109.109C69.0983 108.408 69.144 107.706 68.7327 107.035C68.6566 106.914 68.6413 106.731 68.6261 106.578C68.5499 104.962 68.489 103.361 68.4281 101.744C68.4281 101.622 68.4281 101.485 68.4586 101.363C68.7936 100.158 68.6413 98.9383 68.4586 97.7337C68.3519 97.0475 68.1996 96.3613 68.0473 95.6751C67.8645 94.8974 67.6513 94.1197 67.4533 93.2352M70.2711 88.4471C70.4234 89.0265 70.5757 89.606 70.7128 90.2007C70.8803 90.9174 71.0631 91.6493 71.2002 92.3813C71.3525 93.1437 71.4896 93.9214 71.6267 94.6839C71.7638 95.5073 71.8856 96.3308 71.9922 97.1542C72.0988 98.0386 72.1598 98.9231 72.2969 99.8075C72.373 100.265 72.5558 100.753 73.1041 100.844C73.4392 100.905 73.8048 100.905 74.1398 100.844C74.9014 100.707 75.6477 100.692 76.3941 100.951C76.5464 100.997 76.7292 100.951 76.8967 100.951C76.7596 100.829 76.6226 100.692 76.4702 100.57C76.3941 100.509 76.3179 100.478 76.2418 100.417C76.3027 100.341 76.3636 100.25 76.4398 100.219C76.7901 100.097 77.1252 99.96 77.4907 99.8838C78.2371 99.716 78.9834 99.5483 79.547 98.9841C80.0648 98.4961 80.5218 97.9319 81.0701 97.4897C81.7251 96.956 82.3343 96.4375 82.7151 95.6446C83.0806 94.8974 83.0959 94.8974 82.4409 94.3941C81.7098 93.8452 80.8416 93.403 80.4609 92.5185C80.0801 91.6036 79.1053 91.2986 78.5722 90.5514C78.5265 90.4904 78.4351 90.4447 78.3742 90.4447C77.6126 90.4294 77.0947 89.972 76.5921 89.4687C76.3332 89.2095 75.9676 89.0723 75.663 89.3925C75.3584 89.6975 75.1147 89.6975 74.7948 89.4535C74.5511 89.2705 74.2617 89.1333 74.018 88.9503C72.6015 88.0048 71.2002 87.0594 69.7989 86.114C69.7228 86.053 69.6009 86.053 69.4943 86.0377C69.4943 86.1597 69.4638 86.297 69.4943 86.4037C69.7228 87.0747 69.9512 87.7304 70.2406 88.4471M114.701 120.195C114.96 119.799 114.67 119.616 114.381 119.494C114.305 119.463 114.137 119.585 114.015 119.646C114.168 119.845 114.305 120.043 114.472 120.241C114.503 120.272 114.594 120.241 114.716 120.195M50.2876 145.082C50.1353 145.082 49.9829 145.066 49.8459 145.082C49.7697 145.082 49.6783 145.188 49.6478 145.265C49.6326 145.31 49.7392 145.448 49.7545 145.448C49.9677 145.387 50.3333 145.585 50.2723 145.082M36.1681 146.21C36.2138 146.286 36.2443 146.378 36.29 146.454C36.3813 146.378 36.5032 146.332 36.5489 146.24C36.5794 146.179 36.5337 146.057 36.5184 145.966C36.4118 146.027 36.3204 146.088 36.1681 146.21ZM54.659 145.387C54.659 145.387 54.5676 145.493 54.5219 145.554C54.598 145.6 54.6742 145.646 54.7503 145.692C54.7503 145.6 54.7503 145.493 54.6437 145.402L54.659 145.387Z" fill="#118022"/>
<path d="M168.407 29.8912C168.072 29.9674 167.782 30.0284 167.523 30.1352C166.975 30.3791 166.457 30.6841 165.924 30.9281C164.721 31.4923 163.502 32.026 162.299 32.575C162.086 32.6665 161.857 32.7275 161.629 32.7427C161.157 32.7732 160.791 32.9867 160.395 33.2612C159.816 33.6729 159.207 34.0694 158.552 34.2981C157.851 34.5421 157.303 34.9843 156.709 35.3655C156.45 35.5333 156.145 35.5943 155.871 35.7163C154.942 36.1127 154.028 36.5245 153.099 36.9057C152.932 36.9819 152.734 36.9819 152.551 36.9972C151.835 37.0734 151.073 36.9972 150.418 37.2259C149.626 37.5156 148.895 38.0189 148.164 38.4763C146.93 39.2693 145.758 40.1232 144.158 40.0927C143.473 40.0927 142.772 40.3672 142.087 40.5807C141.508 40.7637 140.929 40.9924 140.381 41.2516C139.985 41.4346 139.635 41.6939 139.3 41.9836C139.178 42.0903 139.071 42.441 139.117 42.502C139.36 42.7155 139.482 43.2187 139.954 42.99C140.244 42.8375 140.488 42.6088 140.747 42.4105C140.899 42.2886 141.036 42.1513 141.203 42.0598C141.523 41.8921 141.721 42.0141 141.737 42.3648C141.752 42.868 142.026 43.0205 142.498 43.0663C142.94 43.112 143.382 43.234 143.793 43.3865C144.204 43.539 144.387 43.2492 144.57 43.0205C144.661 42.8985 144.615 42.6698 144.585 42.4868C144.585 42.3953 144.478 42.3038 144.417 42.2123C144.554 42.1666 144.707 42.0446 144.844 42.0598C145.849 42.2123 146.854 42.3801 147.86 42.5478C147.92 42.5478 147.981 42.5935 148.027 42.6393C148.301 42.8833 148.621 42.7918 148.941 42.7613C149.505 42.7155 150.068 42.7308 150.632 42.7613C151.378 42.8223 152.094 43.051 152.871 42.7918C153.236 42.6698 153.678 42.8223 154.089 42.8528C154.135 42.8528 154.181 42.9443 154.226 42.99C154.15 43.0358 154.074 43.112 153.983 43.1272C153.754 43.1577 153.449 43.0358 153.419 43.4017C153.404 43.539 153.419 43.7372 153.51 43.8287C153.556 43.8897 153.785 43.8287 153.906 43.783C154.013 43.7372 154.089 43.6 154.196 43.5237C154.622 43.234 154.836 43.3102 155.018 43.8135C155.232 44.4082 155.597 44.4997 156.039 44.0269C156.572 43.4627 157.227 43.2492 157.973 43.3255C158.049 43.3255 158.186 43.5085 158.171 43.5695C157.836 44.4539 157.958 44.7131 158.826 44.7894C159.39 44.8351 159.938 44.9114 160.334 44.2404C160.608 43.7677 161.202 43.7525 161.766 43.9659C162.116 44.1032 162.497 44.2252 162.847 44.1947C163.563 44.1489 164.279 44.0117 164.995 43.8897C165.756 43.7525 166.457 43.6915 167.066 44.3929C167.356 44.7284 167.874 44.8961 168.3 45.0944C168.407 45.1401 168.787 45.2316 168.559 44.8199C168.528 44.7741 168.589 44.6369 168.635 44.6216C168.818 44.5454 169.016 44.4844 169.199 44.4539C169.244 44.4539 169.366 44.5759 169.366 44.6064C169.351 44.6826 169.26 44.7436 169.199 44.8046C169.138 44.8656 169.062 44.9114 168.985 44.9724C169.016 45.0029 169.046 45.0486 169.092 45.0791C169.321 45.2316 170.432 45.1096 170.554 44.8656C170.966 43.9812 171.788 44.2252 172.352 44.3624C174.195 44.8504 176.038 44.8961 177.911 44.9571C178.764 44.9876 179.632 45.3078 180.516 45.2164C181.064 45.1554 181.612 45.0334 182.176 45.0334C183.013 45.0334 183.882 45.1859 184.704 45.0944C185.74 44.9876 186.76 44.7589 187.811 44.8199C188.284 44.8504 188.725 44.8961 189.091 45.2164C189.578 45.6586 189.929 45.2926 190.279 45.0029C190.492 44.8199 190.66 44.5606 190.888 44.4234C191.086 44.3014 191.36 44.2862 191.604 44.2252C191.604 44.3014 191.665 44.4082 191.619 44.4539C191.162 45.0181 190.995 45.2316 191.772 45.7348C191.893 45.8111 192 45.9941 192 46.1313C191.954 46.8327 191.97 47.5494 191.787 48.2356C191.497 49.4098 191.071 50.5535 190.721 51.7124C190.477 52.5053 189.959 53.0086 189.182 53.283C189.045 53.3288 188.954 53.5118 188.832 53.6033C188.664 53.7405 188.482 53.8777 188.284 53.954C187.979 54.076 187.674 54.1522 187.522 54.5029C187.446 54.6859 187.278 54.7774 186.974 54.6707C186.075 54.381 185.161 54.1827 184.232 53.9692C184.08 53.9387 183.897 54.0455 183.729 54.0302C182.221 53.9082 180.714 53.9082 179.221 53.5423C178.733 53.4203 178.2 53.4508 177.683 53.4355C176.647 53.3898 175.581 53.4813 174.56 53.2983C172.793 52.9933 170.981 53.222 169.229 52.6426C168.605 52.4291 167.904 52.4596 167.234 52.4291C165.254 52.3376 163.274 52.2919 161.309 52.2156C161.126 52.2156 160.943 52.1394 160.761 52.1241C160.273 52.0784 159.786 52.0936 159.298 52.0021C159.07 51.9564 158.841 51.7886 158.674 51.6362C158.339 51.3159 158.049 51.2397 157.638 51.5294C157.379 51.7124 156.998 51.7276 156.679 51.8344C156.557 51.8801 156.435 51.9564 156.328 52.0174C156.435 52.1241 156.526 52.2919 156.663 52.3224C157.029 52.3986 157.394 52.4291 157.76 52.4291C158.369 52.4291 158.872 52.6883 159.374 52.9781C159.527 53.0695 159.847 53.344 159.374 53.5575C159.176 53.649 159.055 53.9235 159.405 54.0455C159.786 54.198 160.182 54.3352 160.593 54.4115C161.111 54.5182 161.629 54.5334 162.147 54.6249C162.36 54.6707 162.603 54.7774 162.756 54.9299C163.167 55.3416 163.594 55.6771 164.157 55.8601C164.37 55.9363 164.568 56.2261 164.675 56.4701C164.858 56.8665 165.041 57.1715 165.543 57.1258C165.909 57.0953 166.274 57.1563 166.625 57.1258C167.782 56.9885 168.787 57.5375 169.854 57.8425C170.493 58.0255 171.133 58.2694 171.742 58.5439C171.94 58.6354 172.154 58.8946 172.199 59.1081C172.352 59.8706 172.732 60.2365 173.585 60.2975C174.21 60.3433 174.865 60.1451 175.474 60.2365C176.296 60.3585 177.089 60.633 177.881 60.877C178.277 60.999 178.642 61.182 179.038 61.3345C179.982 61.7157 180.394 62.5696 180.12 63.5761C180.074 63.759 179.998 63.9725 180.059 64.1403C180.348 64.8875 179.876 65.4517 179.602 66.0616C179.282 66.8088 178.977 67.556 178.642 68.288C178.322 68.9742 178.139 69.7366 177.408 70.1483C177.256 70.2398 177.149 70.4533 177.073 70.6516C176.83 71.2615 176.434 71.4445 175.855 71.1548C175.702 71.0785 175.55 71.0175 175.383 70.987C175.276 70.9718 175.108 70.9718 175.063 71.0328C175.017 71.0938 175.063 71.2463 175.063 71.353C175.063 71.5512 175.169 71.8562 175.063 71.9325C174.926 72.0545 174.606 72.085 174.453 72.0087C173.524 71.5055 172.61 70.9565 171.697 70.4228C170.722 69.8434 169.701 69.3402 168.574 69.0809C167.904 68.9284 167.28 68.5472 166.609 68.3337C165.558 67.9982 164.462 67.7848 163.426 67.4188C162.39 67.0376 161.4 66.5649 160.425 66.0616C159.71 65.7109 159.039 65.2687 158.354 64.8417C158.156 64.7197 158.004 64.5062 157.806 64.3538C157.592 64.186 157.394 63.9573 157.151 63.9115C156.42 63.7438 155.917 63.3016 155.445 62.7679C154.912 62.1579 154.318 61.7614 153.434 61.7309C152.764 61.7004 152.124 61.3345 151.454 61.1667C150.891 61.0295 150.297 61.0295 149.748 60.8618C148.758 60.5415 147.799 60.1451 146.824 59.7791C146.215 59.5656 145.605 59.3826 145.011 59.1386C144.25 58.8336 143.503 58.4524 142.742 58.1779C142.239 57.995 141.676 57.9797 141.143 57.8425C140.472 57.6747 139.817 57.4307 139.162 57.263C138.766 57.1563 138.355 57.141 137.944 57.1105C137.913 57.1105 137.822 57.2935 137.853 57.3088C138.188 57.6442 138.492 58.0255 138.873 58.2694C139.604 58.7422 140.396 59.1539 141.158 59.5808C141.904 59.9926 142.635 60.4195 143.046 61.2277C143.153 61.426 143.336 61.6089 143.534 61.7157C144.158 62.0512 144.356 62.6764 144.478 63.2558C144.661 64.1098 145.407 64.186 145.94 64.552C145.971 64.5672 146.047 64.552 146.077 64.5215C146.55 64.0488 146.946 64.3538 147.342 64.6587C147.875 65.04 148.423 65.4059 148.956 65.8024C149.063 65.8786 149.078 66.0464 149.185 66.1531C149.291 66.2751 149.428 66.4124 149.565 66.4429C150.677 66.6868 151.774 66.9766 152.536 67.8915C153.373 68.9132 154.531 69.4774 155.597 70.1788C156.389 70.7126 157.12 71.3378 157.821 71.9935C159.131 73.2286 160.578 74.2503 162.101 75.1957C163.35 75.9582 164.553 76.7816 165.772 77.5746C166.107 77.7881 166.472 77.971 166.807 78.1693C167.554 78.5963 168.315 78.9927 169.031 79.4807C169.275 79.6484 169.412 79.9992 169.564 80.2889C169.701 80.5481 169.717 80.8683 169.884 81.0971C170.265 81.6765 170.173 82.2255 169.884 82.7897C169.488 83.5522 169.077 84.2993 168.696 85.077C168.437 85.5955 168.254 86.1597 167.995 86.6629C167.523 87.5626 167.051 88.4776 166.487 89.301C166.289 89.5755 165.802 89.7432 165.421 89.789C164.919 89.85 164.416 90.2159 163.883 89.9567C163.335 89.6975 162.71 89.5297 162.299 89.1333C161.522 88.3556 160.578 87.8371 159.725 87.1814C159.268 86.8307 158.872 86.4037 158.384 86.0987C156.785 85.077 155.079 84.1926 153.556 83.0794C152.475 82.3017 151.622 81.2191 150.647 80.2889C150.251 79.9077 149.794 79.5874 149.352 79.2367C148.773 78.7945 148.21 78.3523 147.616 77.9253C147.144 77.5898 146.641 77.3153 146.184 76.9646C145.56 76.5071 144.966 76.0039 144.341 75.5312C143.351 74.7688 142.346 74.0368 141.371 73.2591C140.366 72.4662 139.406 71.6427 138.401 70.865C137.655 70.2856 136.878 69.7671 136.116 69.1877C135.339 68.593 134.608 67.9678 133.831 67.3883C133.527 67.1596 133.177 66.9918 132.841 66.7783C132.126 66.3361 131.379 65.9549 130.724 65.4212C129.947 64.796 129.247 64.064 128.546 63.3626C127.876 62.6916 127.236 61.9749 126.353 61.5937C125.546 61.2277 125.165 60.4958 124.586 59.9011C124.251 59.5656 123.931 59.1996 123.566 58.8946C123.093 58.4829 122.591 58.1322 122.119 57.7205C121.129 56.836 120.199 55.8754 119.148 55.0824C118.189 54.3657 117.107 53.8015 116.072 53.1915C115.447 52.8256 114.808 52.4748 114.168 52.1394C113.513 51.7886 113.223 51.2244 113.406 50.5382C113.559 49.9283 113.33 49.3946 113.3 48.8151C113.269 48.1899 113.269 47.5494 113.3 46.909C113.33 46.3295 113.345 45.7196 113.513 45.1554C113.894 43.783 114.305 42.4106 114.808 41.0839C115.234 39.986 115.874 38.9643 116.072 37.7901C116.148 37.3327 116.437 37.0582 116.742 36.7837C117.488 36.1127 118.235 35.4723 118.996 34.8166C120.26 33.7339 121.555 32.6665 122.819 31.5838C123.901 30.6536 124.982 29.7539 126.018 28.778C127.038 27.8021 127.983 26.7499 128.973 25.7587C129.338 25.3927 129.765 25.1183 130.145 24.7675C130.465 24.4626 130.709 24.0966 131.029 23.8069C132.019 22.8919 133.1 22.0837 133.999 21.0773C134.669 20.3301 135.476 19.8879 136.314 19.4457C136.665 19.2474 137.121 19.1864 137.533 19.1712C138.69 19.1407 139.589 18.546 140.488 17.9208C141.493 17.2346 142.529 16.5941 143.503 15.8622C143.793 15.6487 144.097 15.237 144.128 14.9015C144.189 14.2915 144.57 14.0475 145.011 13.9103C145.529 13.7426 145.986 13.4986 146.291 13.0716C146.489 12.7971 146.595 12.4312 146.732 12.1109C146.687 12.1109 146.641 12.0652 146.611 12.0804C146.001 12.3549 145.392 12.6446 144.768 12.9191C144.646 12.9649 144.509 12.9496 144.372 12.9649C144.433 12.8581 144.463 12.7209 144.554 12.6599C145.179 12.2787 145.819 11.8974 146.473 11.5315C146.534 11.501 146.687 11.5162 146.732 11.562C147.387 12.2177 148.012 11.8365 148.591 11.4705C149.367 10.9978 150.038 10.3573 150.845 9.96083C152.124 9.35088 152.977 8.25295 154.059 7.41426C154.698 6.91105 155.384 6.43833 156.024 5.95037C156.222 5.79788 156.374 5.59964 156.557 5.4319C156.846 5.17267 157.151 4.92869 157.41 4.65421C158.095 3.92226 158.811 3.20556 159.435 2.41261C159.755 2.01614 159.862 1.45193 160.151 1.02496C160.456 0.567495 160.776 0.0642802 161.415 0.00328449C161.811 -0.0272134 161.918 0.155774 161.766 0.506499C161.72 0.613241 161.69 0.704736 161.659 0.811479C161.492 1.34519 161.751 1.71117 162.314 1.69592C163.106 1.66542 163.228 1.72641 163.198 2.5956C163.167 3.46479 163.198 4.33398 163.076 5.18792C162.969 5.96562 162.634 6.69757 162.466 7.46001C162.192 8.77142 161.355 9.80835 160.837 10.9978C160.562 11.6382 160.166 11.9432 159.572 12.1109C158.613 12.3702 157.851 12.8581 157.257 13.6968C156.892 14.2 156.267 14.5203 155.734 14.9015C154.942 15.4504 154.12 15.9537 153.328 16.4874C153.16 16.5941 152.962 16.7161 152.84 16.8686C152.231 17.7073 151.363 18.2105 150.51 18.7747C149.474 19.4609 148.53 20.3149 147.524 21.0621C146.946 21.489 146.321 21.8397 145.727 22.2362C144.996 22.7394 144.28 23.2884 143.534 23.7611C142.879 24.1728 142.422 24.7675 141.919 25.347C141.417 25.9265 140.731 26.3992 140.031 26.7499C139.254 27.1464 138.629 27.7106 137.974 28.2443C137.228 28.8695 136.497 29.4947 135.781 30.1352C135.476 30.4096 135.309 30.8214 134.989 31.0806C134.365 31.6143 133.679 32.0718 133.039 32.5597C132.918 32.6512 132.841 32.7885 132.75 32.9105C132.918 32.9562 133.1 33.063 133.237 33.0172C134.106 32.7732 134.974 32.4987 135.842 32.2395C136.055 32.1785 136.269 32.0565 136.482 32.0108C136.619 31.9803 136.771 32.0108 136.923 32.0413C136.969 32.0413 137.015 32.148 137.03 32.1328C137.715 31.7363 137.974 32.5292 138.462 32.6512C138.538 32.6665 138.599 32.758 138.66 32.819C138.584 32.8647 138.477 32.9562 138.416 32.941C138.005 32.819 137.594 32.697 137.198 32.5445C136.802 32.392 136.558 32.4683 136.421 32.8647C136.284 33.2612 136.649 33.3832 136.863 33.4137C137.548 33.5509 138.218 33.5662 138.934 33.3679C139.939 33.0935 140.792 32.4987 141.797 32.2395C142.209 32.1328 142.635 32.1023 143.031 31.9955C143.64 31.8278 144.219 31.5838 144.829 31.4161C145.179 31.3246 145.544 31.2483 145.895 31.2636C146.382 31.2636 146.763 31.0653 147.144 30.7909C147.403 30.5926 147.753 30.5011 148.058 30.3639C148.484 30.1657 148.956 30.0132 149.337 29.7539C150.022 29.3117 150.799 29.1897 151.546 28.961C151.82 28.8848 152.109 28.778 152.353 28.6255C153.023 28.1986 153.663 27.7106 154.333 27.2836C154.973 26.8566 155.688 26.9024 156.389 27.0854C157.166 27.2989 157.562 27.0854 157.638 26.3077C157.669 25.9265 158.065 25.6672 158.476 25.9112C158.918 26.1704 159.314 26.0332 159.71 25.957C160.182 25.8655 160.395 25.4537 160.517 25.0115C160.517 24.9658 160.517 24.92 160.517 24.859C160.517 24.4778 160.608 24.2186 161.08 24.3863C161.811 24.6456 162.421 24.3253 162.984 23.9441C163.746 23.4409 164.477 22.8919 165.193 22.3277C165.452 22.1142 165.65 21.8093 165.833 21.5043C166.487 20.3759 167.462 19.7201 168.696 19.3389C170.326 18.8205 171.895 18.119 173.387 17.2803C173.57 17.1736 173.829 17.1431 174.027 17.1888C174.24 17.2498 174.636 17.3566 174.21 17.7073C174.134 17.7683 174.103 17.9055 174.027 17.9818C173.814 18.18 173.54 18.424 173.722 18.6832C173.859 18.8815 174.21 19.0035 174.484 19.0492C175.078 19.1712 175.169 19.2627 175.185 19.8421C175.215 20.6808 175.169 21.489 174.743 22.2362C174.636 22.4345 174.697 22.7089 174.621 22.9224C174.438 23.4256 174.134 23.8831 174.012 24.4016C173.799 25.3165 173.463 26.1552 172.991 26.9634C172.793 27.2836 172.55 27.5886 172.275 27.8478C171.575 28.5035 170.783 28.9915 169.808 29.1897C169.381 29.2812 169.001 29.571 168.544 29.7692M131.943 24.4473C132.339 24.7065 132.72 24.6608 133.085 24.2948C133.71 23.6696 134.365 23.0749 135.187 22.7089C135.355 22.6327 135.492 22.4497 135.598 22.282C135.69 22.16 135.705 21.9922 135.766 21.8398C135.583 21.8093 135.4 21.7635 135.218 21.733C135.187 21.733 135.141 21.7788 135.096 21.794C134.365 22.038 133.649 22.3582 133.1 22.9224C132.674 23.3646 132.324 23.8831 131.943 24.4626M153.967 50.706C153.8 50.706 153.617 50.6602 153.48 50.706C153.267 50.8127 152.962 50.9804 152.962 51.1329C152.947 51.3922 153.114 51.8801 153.236 51.8954C153.541 51.9259 153.937 51.8191 154.196 51.6362C154.683 51.2854 154.622 51.0262 153.967 50.6907M150.754 43.5085C150.632 43.4627 150.51 43.3712 150.373 43.3712C150.266 43.3712 150.159 43.4627 150.053 43.5237C150.099 43.6 150.129 43.7067 150.205 43.7525C150.297 43.7982 150.434 43.8287 150.54 43.8135C150.616 43.7982 150.677 43.6915 150.754 43.5085Z" fill="#118022"/>
<path d="M150.769 8.31396C150.708 8.23772 150.632 8.08523 150.662 8.03948C151.256 7.26179 151.942 6.60608 152.825 6.14861C153.191 5.96563 153.526 5.69115 153.876 5.47766C153.952 5.43191 154.059 5.44716 154.15 5.43192C154.12 5.55391 154.15 5.73689 154.074 5.78264C153.48 6.17911 153.069 6.80432 152.292 6.97206C151.744 7.09405 151.424 7.59726 151.073 8.02423C150.997 8.13097 150.875 8.20722 150.754 8.31396H150.769Z" fill="#118022"/>
<path d="M156.892 25.774C156.724 25.7587 156.572 25.713 156.42 25.6672C156.541 25.5757 156.648 25.4537 156.785 25.3927C157.44 25.0573 158.095 24.737 158.75 24.4168C158.826 24.3711 158.948 24.4168 159.055 24.4168C158.994 24.4931 158.963 24.6151 158.887 24.6608C158.704 24.7675 158.506 24.8438 158.308 24.9505C157.836 25.2098 157.379 25.4842 156.877 25.774H156.892Z" fill="#118022"/>
<path d="M144.798 29.9369C144.691 29.9369 144.615 29.9369 144.539 29.9369C144.57 29.8607 144.6 29.7234 144.646 29.7082C145.346 29.5252 146.047 29.3575 146.748 29.1897C146.793 29.1897 146.854 29.266 146.9 29.2965C146.839 29.3575 146.778 29.449 146.702 29.4795C146.077 29.6319 145.453 29.7844 144.798 29.9522V29.9369Z" fill="#118022"/>
<path d="M159.009 43.8897C158.887 43.8135 158.796 43.7067 158.704 43.6C158.841 43.5542 158.963 43.4627 159.1 43.478C159.481 43.5237 159.877 43.6 160.258 43.6762C160.304 43.6762 160.395 43.7982 160.38 43.8135C160.319 43.905 160.227 44.0574 160.151 44.0574C159.786 44.0117 159.42 43.9355 159.024 43.8897H159.009Z" fill="#118022"/>
<path d="M143.701 42.5325C143.473 42.5325 143.275 42.502 143.077 42.4563C143.031 42.4563 143.001 42.3495 142.955 42.2885C143.016 42.2428 143.107 42.1513 143.153 42.1666C143.366 42.2428 143.732 42.0598 143.701 42.5325Z" fill="#118022"/>
<path d="M55.1921 21.611C54.4609 21.9922 53.7451 22.343 53.0444 22.7242C52.4199 23.0597 51.8259 23.4409 51.2167 23.8069C51.1558 23.8374 51.1405 23.9441 51.1101 24.0051C51.2014 24.0051 51.3081 24.0356 51.369 24.0051C51.8564 23.7459 52.3743 23.5019 52.9378 23.6239C53.2272 23.6849 53.6232 23.8831 53.6842 24.0813C53.7451 24.2948 53.4861 24.6608 53.2729 24.859C53.1206 25.0115 52.816 25.0878 52.5875 25.0725C50.8664 24.9658 49.4498 25.7587 48.0486 26.5669C46.8148 27.2836 45.642 28.1071 44.4692 28.9458C43.4335 29.7082 42.4282 30.5164 41.4534 31.3551C40.9203 31.8125 40.509 32.4378 39.9607 32.8952C39.5342 33.2612 39.0164 33.5357 38.4985 33.7644C38.1025 33.9474 37.7826 33.6424 37.7522 33.2155C37.6455 32.1328 38.2243 31.3246 38.8488 30.5926C39.4885 29.8607 40.2349 29.205 40.966 28.5645C41.8189 27.8021 42.6567 27.0549 43.5705 26.3687C44.3626 25.774 45.246 25.3013 46.0837 24.7675C46.1903 24.7065 46.2969 24.6151 46.3883 24.5388C47.3327 23.6239 48.1704 22.6022 49.3128 21.916C50.9121 20.9706 52.4656 19.9184 54.2782 19.4457C54.9027 19.2779 55.5728 19.2627 56.2278 19.2474C56.441 19.2474 56.7457 19.3999 56.8523 19.5677C56.9437 19.7049 56.8523 20.0709 56.7304 20.2081C56.2583 20.6808 55.7252 21.1078 55.1921 21.5805V21.611Z" fill="#118022"/>
</svg>
