<svg width="408" height="184" viewBox="0 0 408 184" fill="none" xmlns="http://www.w3.org/2000/svg">
<path d="M9.39746 159.327C6.01437 157.227 3.60862 154.377 2.18021 150.851C0.751797 147.325 0 143.5 0 139.374C0 134.798 0.826976 130.748 2.48093 127.222C4.13488 123.696 6.69099 120.996 10.0741 119.046C13.4572 117.095 17.592 116.12 22.5539 116.12C27.5158 116.12 31.801 117.095 34.8834 118.971C37.9657 120.846 40.2963 123.246 41.5744 126.172C42.9276 129.097 43.529 132.098 43.529 135.248C43.529 135.848 43.529 136.449 43.3787 137.049H29.9215V136.824C29.9215 135.623 29.696 134.648 29.2449 133.748C28.7938 132.848 28.1172 132.173 27.215 131.648C26.3129 131.123 25.2604 130.898 24.0575 130.898C22.6291 130.898 21.351 131.273 20.3737 131.948C19.3964 132.623 18.6446 133.673 18.1183 134.873C17.592 136.149 17.3665 137.649 17.3665 139.449C17.3665 141.249 17.592 142.75 18.1183 143.95C18.5694 145.225 19.3212 146.125 20.3737 146.875C21.351 147.55 22.6291 147.926 24.0575 147.926C25.3355 147.926 26.4632 147.7 27.2902 147.25C28.1924 146.8 28.869 146.125 29.3201 145.3C29.7711 144.4 29.9967 143.35 29.9967 142.15V141.849H43.529C43.529 142.3 43.6042 142.75 43.6042 143.275C43.6042 146.725 42.9276 149.876 41.5744 152.801C40.2211 155.652 37.9657 158.052 34.8834 159.853C31.801 161.653 27.6661 162.628 22.6291 162.628C17.141 162.628 12.7054 161.578 9.32228 159.403L9.39746 159.327Z" fill="#118022"/>
<path d="M54.5803 159.703C51.0468 157.752 48.4907 155.052 46.8368 151.601C45.1828 148.076 44.3558 143.95 44.3558 139.149C44.3558 134.723 45.1828 130.748 46.9119 127.372C48.6411 123.921 51.1972 121.221 54.7306 119.271C58.2641 117.245 62.6245 116.27 67.8871 116.27C73.1496 116.27 77.5101 117.245 81.0435 119.271C84.577 121.296 87.2082 123.996 88.8622 127.372C90.5913 130.823 91.4183 134.723 91.4183 139.149C91.4183 143.575 90.5913 147.85 88.9374 151.301C87.2834 154.827 84.7273 157.527 81.2691 159.552C77.8108 161.578 73.3 162.553 67.8119 162.553C62.3238 162.553 58.1137 161.578 54.5803 159.628V159.703ZM71.195 146.875C72.0971 146.275 72.7738 145.3 73.2248 143.95C73.6759 142.6 73.9014 141.024 73.9014 139.149C73.9014 137.424 73.6759 135.923 73.2248 134.723C72.7738 133.523 72.0971 132.548 71.195 131.798C70.2928 131.123 69.1651 130.748 67.8119 130.748C66.4587 130.748 65.4061 131.123 64.504 131.798C63.6018 132.473 62.9252 133.448 62.4741 134.723C62.0231 135.923 61.7975 137.424 61.7975 139.074C61.7975 141.024 62.0231 142.675 62.4741 143.95C62.9252 145.225 63.6018 146.2 64.504 146.875C65.4061 147.475 66.5338 147.851 67.8871 147.851C69.2403 147.851 70.368 147.55 71.2702 146.875H71.195Z" fill="#118022"/>
<path d="M92.6964 116.945H115.476L123.445 135.398L123.295 116.945H136.752V161.728H115.401L105.702 139.374H105.627L106.078 161.728H92.6212V116.945H92.6964Z" fill="#118022"/>
<path d="M148.63 132.698H138.18V116.945H175.695V132.698H165.17V161.728H148.63V132.698Z" fill="#118022"/>
<path d="M176.973 116.945H209.977V131.723H193.437V135.773H204.789V142.9H193.437V146.95H210.503V161.728H176.973V116.945Z" fill="#118022"/>
<path d="M212.082 116.945H234.861L242.83 135.398L242.68 116.945H256.137V161.728H234.786L225.088 139.374H225.013L225.464 161.728H212.007V116.945H212.082Z" fill="#118022"/>
<path d="M268.016 132.698H257.566V116.945H295.08V132.698H284.555V161.728H268.016V132.698Z" fill="#118022"/>
<path d="M296.734 116.945H313.199V161.728H296.734V116.945Z" fill="#118022"/>
<path d="M315.454 116.945H338.233L346.202 135.398L346.052 116.945H359.509V161.728H338.158L328.46 139.374H328.385L328.836 161.728H315.379V116.945H315.454Z" fill="#118022"/>
<path d="M371.162 159.703C367.629 157.752 365.072 155.052 363.418 151.601C361.765 148.076 360.938 143.95 360.938 139.149C360.938 134.723 361.765 130.748 363.494 127.372C365.223 123.921 367.779 121.221 371.312 119.271C374.846 117.245 379.206 116.27 384.469 116.27C389.731 116.27 394.092 117.245 397.625 119.271C401.159 121.296 403.79 123.996 405.444 127.372C407.173 130.823 408 134.723 408 139.149C408 143.575 407.173 147.85 405.519 151.301C403.865 154.827 401.309 157.527 397.851 159.552C394.392 161.578 389.882 162.553 384.394 162.553C378.905 162.553 374.695 161.578 371.162 159.628V159.703ZM387.852 146.875C388.754 146.275 389.431 145.3 389.882 143.95C390.333 142.6 390.558 141.024 390.558 139.149C390.558 137.424 390.333 135.923 389.882 134.723C389.431 133.523 388.754 132.548 387.852 131.798C386.95 131.123 385.822 130.748 384.469 130.748C383.116 130.748 382.063 131.123 381.161 131.798C380.259 132.473 379.582 133.448 379.131 134.723C378.68 135.923 378.454 137.424 378.454 139.074C378.454 141.024 378.68 142.675 379.131 143.95C379.582 145.225 380.259 146.2 381.161 146.875C382.063 147.475 383.191 147.851 384.544 147.851C385.897 147.851 387.025 147.55 387.927 146.875H387.852Z" fill="#118022"/>
<path d="M226.666 13.8024C237.267 8.02638 248.318 4.42576 260.197 4.42576C269.97 4.42576 275.759 7.72632 275.759 12.3771C275.759 18.8282 268.692 22.7289 259.595 22.7289C250.498 22.7289 240.575 18.6032 227.193 14.3275C209.826 25.0543 196.294 43.7325 182.686 63.6109H197.421V63.911H182.536C156.9 101.342 131.113 142.449 79.239 142.449C60.5193 142.449 48.8665 128.947 48.8665 111.469C48.8665 95.3414 58.1136 80.2638 70.8189 71.8623C70.5182 68.9368 70.5182 65.7863 70.9693 62.4857C74.2772 33.9808 114.949 0 157.576 0C183.062 0 207.345 7.42627 226.666 13.7274V13.8024ZM155.396 63.6109H171.785C188.776 43.6575 206.669 24.8293 226.215 13.9524C212.533 9.67667 195.617 5.25091 174.266 5.25091C124.648 5.25091 75.2545 35.6311 71.6459 65.4862C71.3452 67.4366 71.3452 69.3119 71.4955 71.2622C77.7354 67.4366 84.5768 65.0362 91.794 65.0362H92.1699L92.3203 65.3362H91.794C84.652 65.3362 77.7354 67.6616 71.4955 71.6373C72.4729 81.9891 78.6376 91.5907 92.6962 91.5907C110.589 91.5907 135.699 72.6125 135.699 48.0082C135.699 41.7072 132.541 36.3062 126.151 35.4811L126.828 35.3311C132.917 36.4563 135.925 41.4821 135.925 48.0082C135.925 72.7625 110.664 91.8908 92.621 91.8908C79.5398 91.8908 72.097 84.3145 70.6686 72.0874C58.2639 80.4888 49.0168 95.6414 49.0168 111.469C49.0168 128.797 60.8952 142.149 79.0887 142.149C111.04 142.149 139.759 101.117 171.334 63.836H155.171V63.5359L155.396 63.6109ZM260.197 4.72581C247.792 4.72581 237.192 8.32644 227.644 14.1024C241.402 18.6032 252.453 22.5039 259.595 22.5039C268.541 22.5039 275.458 18.8282 275.458 12.4521C275.458 7.87635 269.819 4.72581 260.121 4.72581H260.197Z" fill="#118022"/>
<path d="M225.915 64.9611C225.915 73.0625 207.195 87.69 195.617 90.9906C195.166 91.5157 194.79 91.9657 194.49 92.4908C191.482 97.1416 188.851 100.892 186.897 104.043C183.739 109.144 176.522 122.646 185.543 122.646C190.956 122.646 203.211 112.069 216.968 92.2658L217.119 92.5658C203.361 112.819 191.182 123.096 185.393 123.096C180.882 123.096 176.146 118.97 176.672 111.094C177.048 106.593 178.476 99.542 182.987 91.8157C196.068 70.212 215.766 62.2606 222.832 61.9606C224.336 61.9606 225.84 62.4857 225.84 64.9611H225.915ZM195.843 90.5405C207.721 86.7148 225.614 72.7624 225.614 64.9611C225.614 63.3108 224.637 62.1856 223.283 62.1856H222.983C219.374 62.4857 207.571 73.5126 195.843 90.5405Z" fill="#118022"/>
<path d="M264.407 92.4908C258.092 101.417 244.71 122.871 236.816 122.871C233.884 122.871 232.681 120.096 232.681 116.645C232.681 109.369 235.688 101.942 239.748 94.7412C232.831 104.643 221.103 122.796 213.811 122.796C207.195 122.796 209.526 101.717 220.727 85.6646L226.14 77.7133C257.866 32.3305 293.05 2.32532 315.905 2.32532C325.829 2.32532 332.068 7.95128 332.068 15.2275C332.068 18.6781 330.79 22.3538 328.31 25.8043H327.858C330.49 22.3538 331.693 18.5281 331.693 15.2275C331.693 8.17632 325.453 2.55035 315.83 2.55035C285.382 2.55035 241.928 70.362 216.968 106.593C213.51 111.694 211.555 115.52 211.48 118.145C211.18 120.771 211.781 122.571 214.112 122.571C221.178 122.571 232.831 104.118 241.101 92.1907C242.755 89.2652 244.559 86.5648 246.514 83.7893L260.873 63.3108C265.384 64.511 272.15 66.7614 279.368 56.1846H279.668L239.973 107.643C237.944 110.269 233.884 115.07 233.884 118.67C233.884 121.146 235.012 122.646 237.192 122.646C244.259 122.646 257.34 102.693 264.332 92.2658L264.482 92.5658L264.407 92.4908ZM301.771 17.4779C306.056 17.4779 307.034 21.9787 303.951 27.5296C300.794 33.0056 295.005 37.4313 290.569 37.4313C286.134 37.4313 285.307 33.0056 288.615 27.5296C291.622 22.0537 297.561 17.4779 301.696 17.4779H301.771Z" fill="#118022"/>
<path d="M313.8 44.7828C291.02 49.4336 270.646 83.7144 264.406 92.4909L264.256 92.1909C269.895 84.3145 291.246 47.7833 315.303 44.1827C317.934 43.3575 320.265 43.3575 322.596 44.0326V44.4827C320.942 44.1827 319.438 44.1827 317.784 44.1827C306.056 46.358 291.471 67.4366 280.42 85.0647C291.471 69.237 300.568 61.6607 304.703 61.6607C307.334 61.6607 310.341 64.5862 310.341 71.4123C310.341 75.6881 308.537 83.9395 303.274 92.716C292.9 110.569 277.337 118.595 269.218 120.546C277.939 120.096 294.629 115.745 310.416 92.1909L310.567 92.4909C294.178 117.92 275.383 120.846 267.414 120.996C266.737 120.996 266.136 121.146 265.76 121.146C263.429 121.146 262.452 119.796 262.452 117.695C262.452 116.87 262.753 115.895 262.978 114.92C250.273 136.674 238.319 156.027 226.967 166.679C213.435 179.506 195.542 184.982 185.468 183.857C180.882 183.332 178.175 179.431 178.175 174.48C178.175 171.479 179.303 169.079 181.183 166.529V166.979C179.905 168.629 178.401 171.479 178.401 174.555C178.401 179.956 181.333 183.106 185.693 183.332C206.217 184.832 246.363 131.198 275.909 87.015C293.727 61.4356 305.004 48.6084 313.724 44.7828H313.8ZM276.962 90.5406C272.3 98.492 267.865 106.518 263.429 114.245C262.978 115.445 262.753 116.57 262.753 117.545C262.753 119.496 263.429 120.696 265.384 120.696C269.218 120.696 280.269 110.644 292.148 92.1159C300.944 78.3135 305.906 69.9871 305.906 65.2613C305.906 63.461 305.379 62.1107 303.951 62.1107C300.192 62.1107 289.065 72.0124 276.962 90.6156V90.5406Z" fill="#118022"/>
<path d="M353.57 64.9611C353.57 73.0625 334.85 87.69 323.272 90.9906C322.821 91.5157 322.445 91.9657 322.144 92.4908C319.137 97.1416 316.506 100.892 314.551 104.043C311.394 109.144 304.176 122.646 313.198 122.646C318.611 122.646 330.865 112.069 344.623 92.2658L344.774 92.5658C331.016 112.819 318.837 123.096 313.048 123.096C308.537 123.096 303.801 118.97 304.327 111.094C304.703 106.593 306.131 99.542 310.642 91.8157C323.723 70.212 343.42 62.2606 350.487 61.9606C351.991 61.9606 353.494 62.4857 353.494 64.9611H353.57ZM323.498 90.5405C335.376 86.7148 353.269 72.7624 353.269 64.9611C353.269 63.3108 352.291 62.1856 350.938 62.1856H350.638C347.029 62.4857 335.226 73.5126 323.498 90.5405Z" fill="#118022"/>
</svg>
